<svg xmlns="http://www.w3.org/2000/svg" viewBox="0 0 64 64" role="img" aria-label="Phone booth">
  <rect width="64" height="64" rx="14" fill="#07100f"/>
  <path d="M19 56V16c0-4.4 3.6-8 8-8h10c4.4 0 8 3.6 8 8v40" fill="none" stroke="#32d0a4" stroke-width="4" stroke-linecap="round" stroke-linejoin="round"/>
  <path d="M16 56h32M23 20h18M23 30h18M23 40h18" fill="none" stroke="#dffdf5" stroke-width="3.2" stroke-linecap="round"/>
  <path d="M37.5 48c-7.6-2.2-13.3-7.9-15.5-15.5-.4-1.3.1-2.6 1.2-3.3l3.1-1.9c.9-.6 2.1-.3 2.7.6l2 3c.5.7.5 1.7 0 2.4l-1 1.5c1.2 2.2 3 4 5.2 5.2l1.5-1c.7-.5 1.7-.5 2.4 0l3 2c.9.6 1.2 1.8.6 2.7l-1.9 3.1c-.7 1.1-2 1.6-3.3 1.2Z" fill="#ffb84d"/>
</svg>
